<svg width="500" height="500" viewBox="0 0 500 500" fill="none" xmlns="http://www.w3.org/2000/svg">
<path d="M461 208.154C461 208.154 397 52.0376 280 21.8916C163 -8.25444 113.929 83.9255 96 147.861C78.071 211.796 12 296.44 18 354.58C23.702 409.835 72.131 435.974 117.361 447.188C174.849 461.441 240.176 462.523 297.881 450.642C311.61 447.815 325.077 444.018 338.446 439.66C365.561 430.818 392.17 423.969 419.632 416.644C471.873 402.708 492.574 346.596 486.678 292.902C483.359 262.688 472.285 235.653 461 208.154Z" fill="#6168E4"/>
<path opacity="0.7" d="M461 208.154C461 208.154 397 52.0376 280 21.8916C163 -8.25444 113.929 83.9255 96 147.861C78.071 211.796 12 296.44 18 354.58C23.702 409.835 72.131 435.974 117.361 447.188C174.849 461.441 240.176 462.523 297.881 450.642C311.61 447.815 325.077 444.018 338.446 439.66C365.561 430.818 392.17 423.969 419.632 416.644C471.873 402.708 492.574 346.596 486.678 292.902C483.359 262.688 472.285 235.653 461 208.154Z" fill="white"/>
<path d="M425.753 37.2129H240.254V294.058H425.753V37.2129Z" stroke="#263238" stroke-miterlimit="10" stroke-linecap="round" stroke-linejoin="round"/>
<path d="M333.003 37.3633V294.949" stroke="#263238" stroke-miterlimit="10" stroke-linecap="round" stroke-linejoin="round"/>
<path d="M425.909 166.156H240.097" stroke="#263238" stroke-miterlimit="10" stroke-linecap="round" stroke-linejoin="round"/>
<path d="M425.909 101.656H240.097" stroke="#263238" stroke-miterlimit="10" stroke-linecap="round" stroke-linejoin="round"/>
<path d="M425.909 230.656H240.097" stroke="#263238" stroke-miterlimit="10" stroke-linecap="round" stroke-linejoin="round"/>
<path d="M392.098 131.43L374.02 148.813" stroke="#263238" stroke-miterlimit="10" stroke-linecap="round" stroke-linejoin="round"/>
<path d="M418.991 105.57L397.387 126.343" stroke="#263238" stroke-miterlimit="10" stroke-linecap="round" stroke-linejoin="round"/>
<path d="M372.707 140.527L366.969 146.044" stroke="#263238" stroke-miterlimit="10" stroke-linecap="round" stroke-linejoin="round"/>
<path d="M397.37 116.812L376.664 136.722" stroke="#263238" stroke-miterlimit="10" stroke-linecap="round" stroke-linejoin="round"/>
<path d="M291.777 72.6211L273.699 90.0041" stroke="#263238" stroke-miterlimit="10" stroke-linecap="round" stroke-linejoin="round"/>
<path d="M318.67 46.7637L297.065 67.5367" stroke="#263238" stroke-miterlimit="10" stroke-linecap="round" stroke-linejoin="round"/>
<path d="M272.386 81.7207L266.648 87.2387" stroke="#263238" stroke-miterlimit="10" stroke-linecap="round" stroke-linejoin="round"/>
<path d="M297.05 58.0059L276.345 77.9149" stroke="#263238" stroke-miterlimit="10" stroke-linecap="round" stroke-linejoin="round"/>
<path d="M387.773 199.75L369.694 217.133" stroke="#263238" stroke-miterlimit="10" stroke-linecap="round" stroke-linejoin="round"/>
<path d="M414.665 173.893L393.062 194.666" stroke="#263238" stroke-miterlimit="10" stroke-linecap="round" stroke-linejoin="round"/>
<path d="M368.382 208.85L362.645 214.367" stroke="#263238" stroke-miterlimit="10" stroke-linecap="round" stroke-linejoin="round"/>
<path d="M393.046 185.135L372.34 205.044" stroke="#263238" stroke-miterlimit="10" stroke-linecap="round" stroke-linejoin="round"/>
<path d="M395.929 269.849L395.145 263.166C395.145 263.166 391.595 263.372 390.227 260.283C389.398 258.409 388.562 254.624 389.779 252.753C391.435 250.209 395.106 250.552 396.173 253.606C397.122 256.322 397.585 257.482 397.585 257.482C397.357 253.551 394.397 237.724 403.307 240.13C406.926 241.108 407.921 244.612 408.081 247.373C408.241 250.134 407.864 257.281 407.864 257.281C407.864 257.281 410.254 257.538 410.419 253.57C410.585 249.602 414.438 247.795 416.13 249.676C417.822 251.557 418.606 258.24 416.748 260.327C414.89 262.414 408.996 263.152 408.996 263.152L409.385 269.858L395.929 269.849Z" fill="#6168E4" stroke="#263238" stroke-miterlimit="10" stroke-linecap="round" stroke-linejoin="round"/>
<path d="M401.051 241.232C401.051 241.232 399.578 242.571 399.979 247.125C400.381 251.679 400.381 259.85 400.381 259.85" stroke="#263238" stroke-width="0.5" stroke-miterlimit="10" stroke-linecap="round" stroke-linejoin="round"/>
<path d="M404.937 244.314C404.937 244.314 406.678 244.046 406.142 248.198C405.606 252.35 406.142 258.646 406.142 258.646" stroke="#263238" stroke-width="0.5" stroke-miterlimit="10" stroke-linecap="round" stroke-linejoin="round"/>
<path d="M392.345 253.154C392.345 253.154 390.604 253.556 391.407 256.369C392.211 259.182 392.479 261.325 394.354 261.727C396.229 262.129 396.899 262.129 396.899 262.129L397.167 265.076" stroke="#263238" stroke-width="0.5" stroke-miterlimit="10" stroke-linecap="round" stroke-linejoin="round"/>
<path d="M409.223 261.591C409.223 261.591 414.715 261.725 415.786 259.448C416.858 257.171 416.188 253.287 416.188 253.287" stroke="#263238" stroke-width="0.5" stroke-miterlimit="10" stroke-linecap="round" stroke-linejoin="round"/>
<path d="M394.623 253.891C394.623 254.15 394.413 254.36 394.154 254.36C393.895 254.36 393.685 254.15 393.685 253.891C393.685 253.632 393.895 253.422 394.154 253.422C394.413 253.422 394.623 253.632 394.623 253.891Z" stroke="#263238" stroke-width="0.5" stroke-miterlimit="10" stroke-linecap="round" stroke-linejoin="round"/>
<path d="M395.76 259.784C396.019 259.784 396.229 259.574 396.229 259.315C396.229 259.056 396.019 258.846 395.76 258.846C395.501 258.846 395.291 259.056 395.291 259.315C395.291 259.574 395.501 259.784 395.76 259.784Z" stroke="#263238" stroke-width="0.5" stroke-miterlimit="10" stroke-linecap="round" stroke-linejoin="round"/>
<path d="M393.417 257.573C393.676 257.573 393.886 257.363 393.886 257.104C393.886 256.845 393.676 256.635 393.417 256.635C393.158 256.635 392.948 256.845 392.948 257.104C392.948 257.363 393.158 257.573 393.417 257.573Z" stroke="#263238" stroke-width="0.5" stroke-miterlimit="10" stroke-linecap="round" stroke-linejoin="round"/>
<path d="M402.926 252.016C403.185 252.016 403.395 251.806 403.395 251.547C403.395 251.288 403.185 251.078 402.926 251.078C402.667 251.078 402.457 251.288 402.457 251.547C402.457 251.806 402.667 252.016 402.926 252.016Z" stroke="#263238" stroke-width="0.5" stroke-miterlimit="10" stroke-linecap="round" stroke-linejoin="round"/>
<path d="M398.506 247.461C398.765 247.461 398.975 247.251 398.975 246.992C398.975 246.733 398.765 246.523 398.506 246.523C398.247 246.523 398.037 246.733 398.037 246.992C398.037 247.251 398.247 247.461 398.506 247.461Z" stroke="#263238" stroke-width="0.5" stroke-miterlimit="10" stroke-linecap="round" stroke-linejoin="round"/>
<path d="M404.936 263.334C404.936 263.593 404.726 263.803 404.467 263.803C404.208 263.803 403.998 263.593 403.998 263.334C403.998 263.075 404.208 262.865 404.467 262.865C404.726 262.865 404.936 263.075 404.936 263.334Z" stroke="#263238" stroke-width="0.5" stroke-miterlimit="10" stroke-linecap="round" stroke-linejoin="round"/>
<path d="M399.846 262.664C399.846 262.923 399.636 263.133 399.377 263.133C399.118 263.133 398.908 262.923 398.908 262.664C398.908 262.405 399.118 262.195 399.377 262.195C399.636 262.195 399.846 262.405 399.846 262.664Z" stroke="#263238" stroke-width="0.5" stroke-miterlimit="10" stroke-linecap="round" stroke-linejoin="round"/>
<path d="M403.731 243.176C403.99 243.176 404.2 242.966 404.2 242.707C404.2 242.448 403.99 242.238 403.731 242.238C403.472 242.238 403.262 242.448 403.262 242.707C403.262 242.966 403.472 243.176 403.731 243.176Z" stroke="#263238" stroke-width="0.5" stroke-miterlimit="10" stroke-linecap="round" stroke-linejoin="round"/>
<path d="M413.71 251.614C413.71 251.873 413.499 252.083 413.24 252.083C412.981 252.083 412.771 251.873 412.771 251.614C412.771 251.355 412.981 251.145 413.24 251.145C413.499 251.145 413.71 251.355 413.71 251.614Z" stroke="#263238" stroke-width="0.5" stroke-miterlimit="10" stroke-linecap="round" stroke-linejoin="round"/>
<path d="M412.034 258.444C412.293 258.444 412.503 258.234 412.503 257.975C412.503 257.716 412.293 257.506 412.034 257.506C411.775 257.506 411.565 257.716 411.565 257.975C411.565 258.234 411.775 258.444 412.034 258.444Z" stroke="#263238" stroke-width="0.5" stroke-miterlimit="10" stroke-linecap="round" stroke-linejoin="round"/>
<path d="M403.731 258.311C403.99 258.311 404.2 258.101 404.2 257.842C404.2 257.583 403.99 257.373 403.731 257.373C403.472 257.373 403.262 257.583 403.262 257.842C403.262 258.101 403.472 258.311 403.731 258.311Z" stroke="#263238" stroke-width="0.5" stroke-miterlimit="10" stroke-linecap="round" stroke-linejoin="round"/>
<path d="M414.404 265.521H390.3L392.711 285.279H411.994L414.404 265.521Z" fill="white" stroke="#263238" stroke-miterlimit="10" stroke-linecap="round" stroke-linejoin="round"/>
<path d="M55.6514 229.086L74.0964 405.821" stroke="#263238" stroke-width="2" stroke-miterlimit="10"/>
<path d="M71.1237 371.997L62.7617 363.166" stroke="#263238" stroke-width="2" stroke-miterlimit="10"/>
<path d="M65.3027 365.812C65.3027 365.812 65.5417 361.905 61.9747 358.719C59.8287 356.802 48.5327 352.05 47.4607 356.029C46.2947 360.356 57.8567 368.853 65.3027 365.812Z" fill="#6168E4" stroke="#263238" stroke-miterlimit="10"/>
<path d="M65.3028 365.812L54.5488 359.111" stroke="#263238" stroke-width="0.5" stroke-miterlimit="10"/>
<path d="M73.2204 392.098L64.8594 383.266" stroke="#263238" stroke-width="2" stroke-miterlimit="10"/>
<path d="M67.3993 385.914C67.3993 385.914 67.6383 382.007 64.0713 378.821C61.9253 376.904 50.6293 372.152 49.5573 376.131C48.3923 380.457 59.9533 388.955 67.3993 385.914Z" fill="#6168E4" stroke="#263238" stroke-miterlimit="10"/>
<path d="M67.3995 385.913L56.6465 379.211" stroke="#263238" stroke-width="0.5" stroke-miterlimit="10"/>
<path d="M66.0046 322.95L57.6436 314.119" stroke="#263238" stroke-width="2" stroke-miterlimit="10"/>
<path d="M60.1834 316.765C60.1834 316.765 60.4224 312.858 56.8554 309.672C54.7094 307.755 43.4134 303.003 42.3414 306.982C41.1764 311.308 52.7374 319.806 60.1834 316.765Z" fill="#6168E4" stroke="#263238" stroke-miterlimit="10"/>
<path d="M60.1837 316.765L49.4307 310.064" stroke="#263238" stroke-width="0.5" stroke-miterlimit="10"/>
<path d="M68.1022 343.051L59.7402 334.219" stroke="#263238" stroke-width="2" stroke-miterlimit="10"/>
<path d="M62.2812 336.865C62.2812 336.865 62.5202 332.958 58.9532 329.772C56.8072 327.855 45.5112 323.103 44.4392 327.082C43.2732 331.409 54.8352 339.907 62.2812 336.865Z" fill="#6168E4" stroke="#263238" stroke-miterlimit="10"/>
<path d="M62.2813 336.865L51.5273 330.164" stroke="#263238" stroke-width="0.5" stroke-miterlimit="10"/>
<path d="M62.5974 290.301L54.2354 281.469" stroke="#263238" stroke-width="2" stroke-miterlimit="10"/>
<path d="M56.7764 284.115C56.7764 284.115 57.0154 280.208 53.4484 277.022C51.3024 275.105 40.0063 270.353 38.9343 274.332C37.7683 278.659 49.3304 287.156 56.7764 284.115Z" fill="#6168E4" stroke="#263238" stroke-miterlimit="10"/>
<path d="M56.7765 284.115L46.0225 277.414" stroke="#263238" stroke-width="0.5" stroke-miterlimit="10"/>
<path d="M59.1745 257.507L50.8135 248.676" stroke="#263238" stroke-width="2" stroke-miterlimit="10"/>
<path d="M53.3534 251.322C53.3534 251.322 53.5924 247.415 50.0254 244.229C47.8794 242.312 36.5834 237.56 35.5114 241.538C34.3464 245.866 45.9074 254.363 53.3534 251.322Z" fill="#6168E4" stroke="#263238" stroke-miterlimit="10"/>
<path d="M53.3536 251.322L42.6006 244.621" stroke="#263238" stroke-width="0.5" stroke-miterlimit="10"/>
<path d="M69.7178 360.106L76.0758 349.738" stroke="#263238" stroke-width="2" stroke-miterlimit="10"/>
<path d="M74.137 352.852C74.137 352.852 73.096 349.079 75.929 345.225C77.633 342.906 87.704 335.925 89.574 339.596C91.608 343.589 82.05 354.29 74.137 352.852Z" fill="#6168E4" stroke="#263238" stroke-miterlimit="10"/>
<path d="M74.1367 352.853L83.8197 343.598" stroke="#263238" stroke-width="0.5" stroke-miterlimit="10"/>
<path d="M64.1973 307.214L70.5553 296.846" stroke="#263238" stroke-width="2" stroke-miterlimit="10"/>
<path d="M68.6165 299.959C68.6165 299.959 67.5755 296.186 70.4085 292.332C72.1125 290.013 82.1835 283.032 84.0535 286.703C86.0875 290.696 76.5295 301.397 68.6165 299.959Z" fill="#6168E4" stroke="#263238" stroke-miterlimit="10"/>
<path d="M68.6162 299.96L78.2992 290.705" stroke="#263238" stroke-width="0.5" stroke-miterlimit="10"/>
<path d="M61.7725 283.97L68.1305 273.602" stroke="#263238" stroke-width="2" stroke-miterlimit="10"/>
<path d="M66.1907 276.715C66.1907 276.715 65.1497 272.942 67.9827 269.088C69.6867 266.769 79.7577 259.788 81.6277 263.459C83.6617 267.451 74.1047 278.153 66.1907 276.715Z" fill="#6168E4" stroke="#263238" stroke-miterlimit="10"/>
<path d="M66.1904 276.716L75.8734 267.461" stroke="#263238" stroke-width="0.5" stroke-miterlimit="10"/>
<path d="M58.2158 249.891L64.5738 239.523" stroke="#263238" stroke-width="2" stroke-miterlimit="10"/>
<path d="M62.6341 242.639C62.6341 242.639 61.5931 238.866 64.4261 235.012C66.1301 232.693 76.2011 225.712 78.0711 229.383C80.1051 233.376 70.5471 244.077 62.6341 242.639Z" fill="#6168E4" stroke="#263238" stroke-miterlimit="10"/>
<path d="M62.6348 242.638L72.3178 233.383" stroke="#263238" stroke-width="0.5" stroke-miterlimit="10"/>
<path d="M55.4964 228.106C55.4964 228.106 54.4554 224.333 57.2884 220.479C58.9924 218.16 69.0634 211.179 70.9334 214.85C72.9674 218.843 63.4094 229.544 55.4964 228.106Z" fill="#6168E4" stroke="#263238" stroke-miterlimit="10"/>
<path d="M55.4961 228.105L65.1791 218.85" stroke="#263238" stroke-width="0.5" stroke-miterlimit="10"/>
<path d="M56.0574 228.504C56.0574 228.504 52.1964 229.143 48.6604 225.922C46.5334 223.984 40.6464 213.237 44.4934 211.762C48.6774 210.158 58.3184 220.785 56.0574 228.504Z" fill="#6168E4" stroke="#263238" stroke-miterlimit="10"/>
<path d="M56.0571 228.504L47.8691 217.904" stroke="#263238" stroke-width="0.5" stroke-miterlimit="10"/>
<path d="M104.3 253.428L85.959 430.173" stroke="#263238" stroke-width="2" stroke-miterlimit="10"/>
<path d="M90.0134 396.462L83.6494 386.098" stroke="#263238" stroke-width="2" stroke-miterlimit="10"/>
<path d="M85.5906 389.211C85.5906 389.211 86.6286 385.437 83.7946 381.585C82.0886 379.267 72.0136 372.291 70.1456 375.964C68.1146 379.958 77.6786 390.654 85.5906 389.211Z" fill="#6168E4" stroke="#263238" stroke-miterlimit="10"/>
<path d="M85.5903 389.211L76.4473 380.439" stroke="#263238" stroke-width="0.5" stroke-miterlimit="10"/>
<path d="M95.1033 347.413L88.7393 337.049" stroke="#263238" stroke-width="2" stroke-miterlimit="10"/>
<path d="M90.6804 340.16C90.6804 340.16 91.7194 336.386 88.8844 332.534C87.1784 330.216 77.1034 323.241 75.2354 326.913C73.2044 330.908 82.7684 341.603 90.6804 340.16Z" fill="#6168E4" stroke="#263238" stroke-miterlimit="10"/>
<path d="M90.6801 340.16L81.5371 331.389" stroke="#263238" stroke-width="0.5" stroke-miterlimit="10"/>
<path d="M93.0173 367.514L86.6533 357.15" stroke="#263238" stroke-width="2" stroke-miterlimit="10"/>
<path d="M88.5945 360.262C88.5945 360.262 89.6335 356.488 86.7985 352.636C85.0925 350.318 75.0175 343.343 73.1495 347.015C71.1185 351.009 80.6825 361.705 88.5945 360.262Z" fill="#6168E4" stroke="#263238" stroke-miterlimit="10"/>
<path d="M88.5942 360.261L79.4512 351.49" stroke="#263238" stroke-width="0.5" stroke-miterlimit="10"/>
<path d="M98.491 314.759L92.127 304.395" stroke="#263238" stroke-width="2" stroke-miterlimit="10"/>
<path d="M94.0681 307.508C94.0681 307.508 95.1071 303.734 92.2721 299.882C90.5661 297.564 80.4911 290.589 78.6231 294.261C76.5921 298.255 86.1561 308.951 94.0681 307.508Z" fill="#6168E4" stroke="#263238" stroke-miterlimit="10"/>
<path d="M94.0678 307.508L84.9248 298.736" stroke="#263238" stroke-width="0.5" stroke-miterlimit="10"/>
<path d="M101.894 281.966L95.5303 271.602" stroke="#263238" stroke-width="2" stroke-miterlimit="10"/>
<path d="M97.4715 274.713C97.4715 274.713 98.5105 270.939 95.6755 267.087C93.9695 264.769 83.8945 257.794 82.0265 261.466C79.9955 265.461 89.5595 276.157 97.4715 274.713Z" fill="#6168E4" stroke="#263238" stroke-miterlimit="10"/>
<path d="M97.4711 274.712L88.3281 265.941" stroke="#263238" stroke-width="0.5" stroke-miterlimit="10"/>
<path d="M91.0879 384.536L99.4439 375.699" stroke="#263238" stroke-width="2" stroke-miterlimit="10"/>
<path d="M96.9048 378.346C96.9048 378.346 96.6628 374.44 100.229 371.251C102.374 369.333 113.667 364.574 114.741 368.552C115.909 372.879 104.353 381.383 96.9048 378.346Z" fill="#6168E4" stroke="#263238" stroke-miterlimit="10"/>
<path d="M96.9053 378.346L108.286 371.283" stroke="#263238" stroke-width="0.5" stroke-miterlimit="10"/>
<path d="M96.5762 331.64L104.932 322.803" stroke="#263238" stroke-width="2" stroke-miterlimit="10"/>
<path d="M102.393 325.451C102.393 325.451 102.151 321.545 105.717 318.357C107.862 316.439 119.155 311.68 120.229 315.658C121.397 319.984 109.841 328.488 102.393 325.451Z" fill="#6168E4" stroke="#263238" stroke-miterlimit="10"/>
<path d="M102.394 325.452L113.775 318.389" stroke="#263238" stroke-width="0.5" stroke-miterlimit="10"/>
<path d="M98.9883 308.395L107.344 299.559" stroke="#263238" stroke-width="2" stroke-miterlimit="10"/>
<path d="M104.805 302.205C104.805 302.205 104.563 298.299 108.129 295.111C110.274 293.193 121.567 288.434 122.641 292.412C123.809 296.738 112.253 305.242 104.805 302.205Z" fill="#6168E4" stroke="#263238" stroke-miterlimit="10"/>
<path d="M104.806 302.206L116.187 295.143" stroke="#263238" stroke-width="0.5" stroke-miterlimit="10"/>
<path d="M102.525 274.316L110.881 265.479" stroke="#263238" stroke-width="2" stroke-miterlimit="10"/>
<path d="M108.342 268.126C108.342 268.126 108.1 264.22 111.666 261.031C113.811 259.113 125.104 254.354 126.178 258.332C127.346 262.658 115.79 271.163 108.342 268.126Z" fill="#6168E4" stroke="#263238" stroke-miterlimit="10"/>
<path d="M108.342 268.127L119.723 261.064" stroke="#263238" stroke-width="0.5" stroke-miterlimit="10"/>
<path d="M104.35 252.435C104.35 252.435 104.109 248.529 107.674 245.341C109.819 243.423 121.112 238.664 122.186 242.642C123.354 246.968 111.797 255.472 104.35 252.435Z" fill="#6168E4" stroke="#263238" stroke-miterlimit="10"/>
<path d="M104.35 252.435L115.731 245.373" stroke="#263238" stroke-width="0.5" stroke-miterlimit="10"/>
<path d="M104.817 252.942C104.817 252.942 100.907 252.773 98.1099 248.893C96.4269 246.559 92.8789 234.829 96.9479 234.178C101.372 233.469 108.618 245.853 104.817 252.942Z" fill="#6168E4" stroke="#263238" stroke-miterlimit="10"/>
<path d="M104.817 252.942L98.9863 240.883" stroke="#263238" stroke-width="0.5" stroke-miterlimit="10"/>
<path d="M83.2812 181.455V404.96" stroke="#263238" stroke-width="2" stroke-miterlimit="10"/>
<path d="M83.4595 371.355L76.0605 361.703" stroke="#263238" stroke-width="2" stroke-miterlimit="10"/>
<path d="M78.3123 364.598C78.3123 364.598 78.9554 360.737 75.7384 357.198C73.8024 355.069 63.0614 349.17 61.5824 353.016C59.9734 357.198 70.5903 366.85 78.3123 364.598Z" fill="#6168E4" stroke="#263238" stroke-miterlimit="10"/>
<path d="M78.3125 364.599L68.3125 356.818" stroke="#263238" stroke-width="0.5" stroke-miterlimit="10"/>
<path d="M83.4595 329.353L76.0605 319.701" stroke="#263238" stroke-width="2" stroke-miterlimit="10"/>
<path d="M78.3123 322.597C78.3123 322.597 78.9554 318.736 75.7384 315.197C73.8024 313.068 63.0614 307.169 61.5824 311.015C59.9734 315.198 70.5903 324.85 78.3123 322.597Z" fill="#6168E4" stroke="#263238" stroke-miterlimit="10"/>
<path d="M78.3125 322.597L68.3125 314.816" stroke="#263238" stroke-width="0.5" stroke-miterlimit="10"/>
<path d="M83.4595 280.039L76.0605 270.387" stroke="#263238" stroke-width="2" stroke-miterlimit="10"/>
<path d="M78.3123 273.282C78.3123 273.282 78.9554 269.421 75.7384 265.882C73.8024 263.753 63.0614 257.854 61.5824 261.7C59.9734 265.882 70.5903 275.534 78.3123 273.282Z" fill="#6168E4" stroke="#263238" stroke-miterlimit="10"/>
<path d="M78.3125 273.283L68.3125 265.502" stroke="#263238" stroke-width="0.5" stroke-miterlimit="10"/>
<path d="M83.4595 247.211L76.0605 237.559" stroke="#263238" stroke-width="2" stroke-miterlimit="10"/>
<path d="M78.3123 240.454C78.3123 240.454 78.9554 236.593 75.7384 233.054C73.8024 230.925 63.0614 225.026 61.5824 228.872C59.9734 233.054 70.5903 242.706 78.3123 240.454Z" fill="#6168E4" stroke="#263238" stroke-miterlimit="10"/>
<path d="M78.3125 240.455L68.3125 232.674" stroke="#263238" stroke-width="0.5" stroke-miterlimit="10"/>
<path d="M83.4595 214.24L76.0605 204.588" stroke="#263238" stroke-width="2" stroke-miterlimit="10"/>
<path d="M78.3123 207.483C78.3123 207.483 78.9554 203.622 75.7384 200.083C73.8024 197.954 63.0614 192.055 61.5824 195.901C59.9734 200.083 70.5903 209.735 78.3123 207.483Z" fill="#6168E4" stroke="#263238" stroke-miterlimit="10"/>
<path d="M78.3125 207.483L68.3125 199.701" stroke="#263238" stroke-width="0.5" stroke-miterlimit="10"/>
<path d="M83.2959 384.181L90.6959 374.529" stroke="#263238" stroke-width="2" stroke-miterlimit="10"/>
<path d="M88.4431 377.425C88.4431 377.425 87.8001 373.564 91.0171 370.025C92.9531 367.896 103.694 361.997 105.173 365.843C106.782 370.025 96.1651 379.677 88.4431 377.425Z" fill="#6168E4" stroke="#263238" stroke-miterlimit="10"/>
<path d="M88.4434 377.425L99.0354 369.225" stroke="#263238" stroke-width="0.5" stroke-miterlimit="10"/>
<path d="M83.2959 317.379L90.6959 307.727" stroke="#263238" stroke-width="2" stroke-miterlimit="10"/>
<path d="M88.4431 310.622C88.4431 310.622 87.8001 306.761 91.0171 303.222C92.9531 301.093 103.694 295.194 105.173 299.04C106.782 303.223 96.1651 312.874 88.4431 310.622Z" fill="#6168E4" stroke="#263238" stroke-miterlimit="10"/>
<path d="M88.4434 310.622L99.0354 302.422" stroke="#263238" stroke-width="0.5" stroke-miterlimit="10"/>
<path d="M83.2959 284.408L90.6959 274.756" stroke="#263238" stroke-width="2" stroke-miterlimit="10"/>
<path d="M88.4431 277.651C88.4431 277.651 87.8001 273.79 91.0171 270.251C92.9531 268.122 103.694 262.223 105.173 266.069C106.782 270.251 96.1651 279.903 88.4431 277.651Z" fill="#6168E4" stroke="#263238" stroke-miterlimit="10"/>
<path d="M88.4434 277.651L99.0354 269.451" stroke="#263238" stroke-width="0.5" stroke-miterlimit="10"/>
<path d="M83.2959 240.828L90.6959 231.176" stroke="#263238" stroke-width="2" stroke-miterlimit="10"/>
<path d="M88.4431 234.072C88.4431 234.072 87.8001 230.211 91.0171 226.672C92.9531 224.543 103.694 218.644 105.173 222.489C106.782 226.672 96.1651 236.324 88.4431 234.072Z" fill="#6168E4" stroke="#263238" stroke-miterlimit="10"/>
<path d="M88.4434 234.071L99.0354 225.871" stroke="#263238" stroke-width="0.5" stroke-miterlimit="10"/>
<path d="M83.2969 206.565L90.6969 196.914" stroke="#263238" stroke-width="2" stroke-miterlimit="10"/>
<path d="M88.444 199.809C88.444 199.809 87.801 195.948 91.018 192.409C92.954 190.28 103.695 184.381 105.174 188.227C106.783 192.409 96.166 202.061 88.444 199.809Z" fill="#6168E4" stroke="#263238" stroke-miterlimit="10"/>
<path d="M88.4434 199.809L99.0354 191.609" stroke="#263238" stroke-width="0.5" stroke-miterlimit="10"/>
<path d="M82.8534 184.614C82.8534 184.614 82.2094 180.753 85.4274 177.214C87.3634 175.085 98.1044 169.186 99.5834 173.032C101.191 177.214 90.5744 186.866 82.8534 184.614Z" fill="#6168E4" stroke="#263238" stroke-miterlimit="10"/>
<path d="M82.8535 184.614L93.4445 176.414" stroke="#263238" stroke-width="0.5" stroke-miterlimit="10"/>
<path d="M83.3698 185.07C83.3698 185.07 79.4628 185.305 76.2808 181.734C74.3658 179.586 69.6268 168.285 73.6058 167.218C77.9348 166.057 86.4198 177.627 83.3698 185.07Z" fill="#6168E4" stroke="#263238" stroke-miterlimit="10"/>
<path d="M83.3702 185.071L76.3271 173.678" stroke="#263238" stroke-width="0.5" stroke-miterlimit="10"/>
<path d="M92.4767 462.929H68.8067L65.8477 403.15H95.4357L92.4767 462.929Z" fill="#263238" stroke="#263238" stroke-miterlimit="10"/>
<path d="M306.345 220H379.332L362.332 282.623H289.345L306.345 220Z" fill="#7D7D7D" stroke="#263238" stroke-miterlimit="10" stroke-linecap="round" stroke-linejoin="round"/>
<path d="M308.43 222.332H375.978L360.245 280.288H292.697L308.43 222.332Z" fill="white" stroke="#263238" stroke-miterlimit="10" stroke-linecap="round" stroke-linejoin="round"/>
<path d="M324.794 262.215L328.853 247.053H330.543L326.896 260.677H331.228L330.816 262.215H324.794Z" fill="#263238"/>
<path d="M335.048 250.712C335.668 248.395 337.215 246.9 339.534 246.9C341.873 246.9 342.621 248.395 342 250.712L339.901 258.553C339.286 260.849 337.732 262.365 335.394 262.365C333.075 262.365 332.334 260.849 332.949 258.553L335.048 250.712ZM334.592 258.64C334.221 260.026 334.592 260.828 335.805 260.828C337.04 260.828 337.817 260.026 338.188 258.64L340.333 250.626C340.698 249.262 340.356 248.438 339.122 248.438C337.909 248.438 337.103 249.262 336.737 250.626L334.592 258.64Z" fill="#263238"/>
<path d="M350.3 250.712L349.952 252.012H348.349L348.72 250.626C349.085 249.262 348.764 248.438 347.53 248.438C346.318 248.438 345.534 249.262 345.168 250.626L343.023 258.64C342.658 260.005 343.002 260.828 344.213 260.828C345.447 260.828 346.209 260.005 346.575 258.64L347.387 255.607H345.828L346.234 254.091H349.396L348.202 258.553C347.587 260.849 346.099 262.365 343.76 262.365C341.443 262.365 340.766 260.849 341.38 258.553L343.479 250.712C344.094 248.417 345.582 246.9 347.9 246.9C350.238 246.9 350.915 248.417 350.3 250.712Z" fill="#263238"/>
<path d="M351.778 250.712C352.398 248.395 353.945 246.9 356.264 246.9C358.603 246.9 359.351 248.395 358.73 250.712L356.631 258.553C356.016 260.849 354.462 262.365 352.124 262.365C349.805 262.365 349.064 260.849 349.679 258.553L351.778 250.712ZM351.322 258.64C350.951 260.026 351.322 260.828 352.535 260.828C353.77 260.828 354.547 260.026 354.918 258.64L357.063 250.626C357.428 249.262 357.086 248.438 355.852 248.438C354.639 248.438 353.833 249.262 353.467 250.626L351.322 258.64Z" fill="#263238"/>
<path d="M326.627 247.877C326.495 244.434 325.7 238.073 321.924 233.154C316.475 226.054 306.597 235.708 310.761 247.793C311.339 249.472 312.207 250.918 313.115 252.104" stroke="#263238" stroke-miterlimit="10" stroke-linecap="round" stroke-linejoin="round"/>
<path d="M317.045 255.908C317.045 255.908 302.633 258.096 305.666 263.388C310.924 272.563 319.651 264.139 323.34 259.844" stroke="#263238" stroke-miterlimit="10" stroke-linecap="round" stroke-linejoin="round"/>
<path d="M323.581 243.278C325.201 247.63 324.858 251.774 322.815 252.534C320.772 253.294 317.803 250.383 316.184 246.031C314.564 241.679 314.907 237.535 316.95 236.775C318.992 236.015 321.961 238.926 323.581 243.278Z" fill="#6168E4" stroke="#263238" stroke-miterlimit="10" stroke-linecap="round" stroke-linejoin="round"/>
<path d="M309.064 263.637C309.568 264.966 312.131 265.226 314.789 264.218C317.447 263.21 319.193 261.315 318.689 259.986C318.185 258.657 315.622 258.397 312.964 259.405C310.306 260.413 308.56 262.308 309.064 263.637Z" fill="#6168E4" stroke="#263238" stroke-miterlimit="10" stroke-linecap="round" stroke-linejoin="round"/>
<path d="M330.966 235.623C330.966 235.623 333.869 242.983 328.619 249.494C328.619 249.494 329.508 244.681 327.378 238.454" stroke="#263238" stroke-miterlimit="10" stroke-linecap="round" stroke-linejoin="round"/>
<path d="M362.332 279.295H260.011V282.623H362.332V279.295Z" fill="#7D7D7D" stroke="#263238" stroke-miterlimit="10" stroke-linecap="round" stroke-linejoin="round"/>
<path d="M362.332 279.295H315.313V282.623H362.332V279.295Z" fill="#595959" stroke="#263238" stroke-miterlimit="10" stroke-linecap="round" stroke-linejoin="round"/>
<path d="M232.785 287.93H227.285V462.542H232.785V287.93Z" fill="white" stroke="#263238" stroke-miterlimit="10" stroke-linecap="round" stroke-linejoin="round"/>
<path d="M222.586 462.541H227.284L227.284 287.929H222.586L222.586 462.541Z" fill="#A8A8A8" stroke="#263238" stroke-miterlimit="10" stroke-linecap="round" stroke-linejoin="round"/>
<path d="M373.681 379.295H368.181V462.543H373.681V379.295Z" fill="white" stroke="#263238" stroke-miterlimit="10" stroke-linecap="round" stroke-linejoin="round"/>
<path d="M363.483 462.543H368.181V379.295H363.483V462.543Z" fill="#A8A8A8" stroke="#263238" stroke-miterlimit="10" stroke-linecap="round" stroke-linejoin="round"/>
<path d="M432.573 379.295H427.073V462.543H432.573V379.295Z" fill="white" stroke="#263238" stroke-miterlimit="10" stroke-linecap="round" stroke-linejoin="round"/>
<path d="M422.375 462.543H427.073V379.295H422.375V462.543Z" fill="#A8A8A8" stroke="#263238" stroke-miterlimit="10" stroke-linecap="round" stroke-linejoin="round"/>
<path d="M313.668 384.047H367.324V289.629H313.668V384.047Z" fill="#A8A8A8" stroke="#263238" stroke-miterlimit="10" stroke-linecap="round" stroke-linejoin="round"/>
<path d="M438.033 289.629H367.323V384.047H438.033V289.629Z" fill="white" stroke="#263238" stroke-miterlimit="10" stroke-linecap="round" stroke-linejoin="round"/>
<path d="M367.323 289.629H313.667V294.226H367.323H438.033V289.629H367.323Z" fill="#263238" stroke="#263238" stroke-miterlimit="10" stroke-linecap="round" stroke-linejoin="round"/>
<path d="M363.996 295.035H318.243V317.08H363.996V295.035Z" fill="white" stroke="#263238" stroke-miterlimit="10" stroke-linecap="round" stroke-linejoin="round"/>
<path d="M347.15 303.979H335.088V308.138H347.15V303.979Z" fill="#263238"/>
<path d="M363.996 325.4H318.243V347.445H363.996V325.4Z" fill="white" stroke="#263238" stroke-miterlimit="10" stroke-linecap="round" stroke-linejoin="round"/>
<path d="M347.15 333.926H335.088V338.085H347.15V333.926Z" fill="#263238"/>
<path d="M363.996 355.764H318.243V377.809H363.996V355.764Z" fill="white" stroke="#263238" stroke-miterlimit="10" stroke-linecap="round" stroke-linejoin="round"/>
<path d="M347.15 363.875H335.088V368.034H347.15V363.875Z" fill="#263238"/>
<path d="M445.326 285.48H215V290.97H445.326V285.48Z" fill="#A8A8A8" stroke="#263238" stroke-miterlimit="10" stroke-linecap="round" stroke-linejoin="round"/>
<path d="M445.326 285.48H375.78V290.97H445.326V285.48Z" fill="white" stroke="#263238" stroke-miterlimit="10" stroke-linecap="round" stroke-linejoin="round"/>
<path d="M234.531 341.363C234.531 341.363 241.393 346.114 251.568 375.467C254.954 385.235 273.957 437.858 274.957 441.524C275.957 445.191 277.957 449.524 280.957 449.524C283.957 449.524 294.957 435.524 293.624 433.857C292.291 432.19 285.957 425.524 285.957 425.524C285.957 425.524 282.176 382.922 281.509 370.922C280.842 358.922 283.568 344.466 277.234 334.8C270.901 325.133 242.901 335.133 242.901 335.133L234.531 341.363Z" fill="white" stroke="#263238" stroke-miterlimit="10" stroke-linecap="round" stroke-linejoin="round"/>
<path d="M288.956 425.523C288.956 425.523 286.289 426.856 286.623 429.856C286.956 432.856 289.956 436.856 289.956 436.856C289.956 436.856 283.623 441.856 280.289 442.189C276.956 442.522 273.289 443.189 273.289 444.189C273.289 445.189 275.956 446.856 277.622 450.522C279.289 454.189 282.955 459.855 283.955 461.189C284.955 462.522 285.622 463.522 289.288 462.522C292.955 461.522 300.955 454.189 305.288 451.189C309.621 448.189 322.621 446.189 324.955 444.522C327.288 442.855 334.622 432.189 331.288 430.189C327.955 428.189 326.955 430.522 322.955 431.522C318.955 432.522 307.288 431.189 300.955 429.855C294.622 428.522 292.622 428.188 292.622 428.188L288.956 425.523Z" fill="#6168E4" stroke="#263238" stroke-miterlimit="10" stroke-linecap="round" stroke-linejoin="round"/>
<path d="M283.418 460.429C283.637 460.749 283.822 461.011 283.956 461.19C284.956 462.523 285.623 463.523 289.289 462.523C292.956 461.523 300.956 454.19 305.289 451.19C309.622 448.19 322.622 446.19 324.956 444.523C327.289 442.856 334.623 432.19 331.289 430.19C330.726 429.852 330.234 429.647 329.778 429.529C329.837 429.75 329.896 429.953 329.955 430.19C330.955 434.19 327.622 438.19 324.622 441.19C321.622 444.19 311.622 443.523 300.622 449.19C292.939 453.148 286.568 457.911 283.418 460.429Z" fill="white" stroke="#263238" stroke-miterlimit="10" stroke-linecap="round" stroke-linejoin="round"/>
<path d="M283.102 392.168C282.383 383.406 281.747 375.21 281.509 370.922C280.842 358.922 283.568 344.466 277.234 334.8C270.901 325.133 242.901 335.133 242.901 335.133L234.531 341.363C234.531 341.363 241.393 346.114 251.568 375.467C252.863 379.203 256.442 389.207 260.425 400.343L283.102 392.168Z" fill="#263238" stroke="#263238" stroke-miterlimit="10" stroke-linecap="round" stroke-linejoin="round"/>
<path d="M266.781 170.376C266.781 170.376 268.293 174.308 267.991 177.635C267.688 180.962 264.664 182.474 264.362 181.567C264.059 180.66 264.059 178.24 264.059 177.03C264.059 175.82 264.059 175.82 264.059 175.82C264.059 175.82 263.454 177.03 261.337 179.147C259.22 181.264 258.01 180.659 257.103 180.659C256.196 180.659 255.893 177.634 257.405 175.517C258.918 173.401 263.757 168.562 266.781 170.376Z" fill="white" stroke="#263238" stroke-miterlimit="10" stroke-linecap="round" stroke-linejoin="round"/>
<path d="M273.738 178.239C270.714 176.424 266.177 182.776 259.221 181.263C258.334 181.07 258.011 179.751 259.523 176.726C261.035 173.702 265.874 171.282 268.294 169.467C270.713 167.652 272.528 166.14 272.528 164.023C272.528 161.906 267.084 165.233 265.572 166.443C264.881 166.996 262.42 168.244 259.866 169.494C259.495 169.507 259.057 169.527 258.566 169.557C255.869 169.725 251.725 170.205 250.148 171.585C248.093 173.383 246.913 179.531 246.418 181.902C245.081 183.839 243.88 185.626 243.191 186.707C241.074 190.034 198.429 221.186 198.429 221.186L201.453 247.801L249.844 192.756C249.844 192.756 251.054 191.546 254.381 190.336C257.708 189.126 262.245 188.219 266.176 186.102C270.108 183.985 270.41 183.682 274.644 180.96C276.696 179.642 275.378 179.223 273.738 178.239Z" fill="white" stroke="#263238" stroke-miterlimit="10" stroke-linecap="round" stroke-linejoin="round"/>
<path d="M222.875 203.041C211.032 211.979 198.429 221.185 198.429 221.185L201.453 247.8L231.175 213.991L222.875 203.041Z" fill="#6168E4" stroke="#263238" stroke-miterlimit="10" stroke-linecap="round" stroke-linejoin="round"/>
<path d="M208 303.668C208 303.668 229.333 302.668 260.333 307.668C291.333 312.668 302.933 317.99 302 324.001C298.222 348.342 241.389 428.47 241.389 428.47L242.389 439.803C242.389 439.803 240.389 442.47 233.389 442.803C226.389 443.136 217.722 433.136 217.722 433.136C217.722 433.136 225.546 425.044 228.546 415.378C231.546 405.711 255.666 343.334 255.666 343.334C255.666 343.334 224 350.334 189 344.001C154 337.668 208 303.668 208 303.668Z" fill="white" stroke="#263238" stroke-miterlimit="10" stroke-linecap="round" stroke-linejoin="round"/>
<path d="M260.333 307.668C229.333 302.668 208 303.668 208 303.668C208 303.668 154 337.668 189 344.001C224 350.334 255.667 343.334 255.667 343.334C255.667 343.334 245.63 369.292 237.7 390.313L261.209 399.355C278 373.886 299.714 338.731 302 324.001C302.933 317.99 291.333 312.668 260.333 307.668Z" fill="#263238" stroke="#263238" stroke-miterlimit="10" stroke-linecap="round" stroke-linejoin="round"/>
<path d="M241.388 428.469C241.388 428.469 239.388 429.136 238.388 431.469C237.388 433.802 236.721 436.136 236.721 436.136C236.721 436.136 230.388 434.803 226.054 432.803C221.721 430.803 218.721 428.803 218.721 428.803C218.721 428.803 215.721 429.136 215.721 431.136C215.721 433.136 215.388 436.803 214.054 440.136C213.196 442.282 211.37 447.053 210.178 450.18C209.586 451.733 210.506 453.443 212.129 453.802C217.405 454.969 228.534 457.541 238.054 460.47C251.054 464.47 265.387 462.47 267.054 462.137C268.721 461.804 275.387 457.804 272.387 455.137C269.387 452.47 251.72 445.47 248.054 440.804C244.388 436.135 241.388 428.469 241.388 428.469Z" fill="#6168E4" stroke="#263238" stroke-miterlimit="10" stroke-linecap="round" stroke-linejoin="round"/>
<path d="M271.053 454.198C271.032 457.51 269.354 460.801 264.055 460.801C258.722 460.801 249.388 460.134 236.055 454.801C225.525 450.589 215.208 448.042 211.334 447.156C210.922 448.232 210.524 449.274 210.18 450.178C209.588 451.731 210.508 453.441 212.131 453.8C217.407 454.967 228.536 457.539 238.056 460.468C251.056 464.468 265.389 462.468 267.056 462.135C268.723 461.802 275.389 457.802 272.389 455.135C272.085 454.865 271.626 454.549 271.053 454.198Z" fill="white" stroke="#263238" stroke-miterlimit="10" stroke-linecap="round" stroke-linejoin="round"/>
<path d="M140.661 226.025C140.661 226.025 137.032 254.757 137.334 260.201C137.636 265.645 141.568 312.524 142.475 322.807C143.382 333.09 147.617 342.163 155.178 343.978C162.739 345.793 182.398 348.515 190.866 346.397C199.335 344.28 208.408 325.226 211.432 317.967C214.456 310.708 216.574 306.172 215.666 304.66C214.759 303.148 210.827 299.821 210.827 299.821C210.827 299.821 203.266 244.776 201.451 230.561C199.636 216.346 200.544 215.136 193.89 209.692C187.238 204.249 152.759 199.712 140.661 226.025Z" fill="#6168E4" stroke="#263238" stroke-miterlimit="10" stroke-linecap="round" stroke-linejoin="round"/>
<path d="M189.06 326.309C187.965 327.143 186.833 327.933 185.666 328.666" stroke="#263238" stroke-miterlimit="10" stroke-linecap="round" stroke-linejoin="round"/>
<path d="M208.999 302C208.999 302 202.579 314.602 191.948 323.942" stroke="#263238" stroke-miterlimit="10" stroke-linecap="round" stroke-linejoin="round"/>
<path d="M204.332 302.668C204.332 302.668 193.999 312.335 183.665 318.335" stroke="#263238" stroke-miterlimit="10" stroke-linecap="round" stroke-linejoin="round"/>
<path d="M212.644 135.594C212.644 135.594 215.668 141.945 216.576 146.482C217.483 151.019 217.786 155.253 219.903 156.16C222.02 157.067 225.952 157.37 225.347 159.789C224.742 162.209 220.81 166.14 220.81 166.14C220.81 166.14 221.717 180.657 221.415 183.379C221.112 186.101 205.083 186.101 204.176 186.101C203.269 186.101 194.195 207.575 194.195 207.575L168.79 194.872L173.629 179.145C173.629 179.145 165.765 164.023 165.161 157.369C164.556 150.715 179.981 138.618 188.752 135.896C197.522 133.175 212.644 135.594 212.644 135.594Z" fill="white" stroke="#263238" stroke-miterlimit="10" stroke-linecap="round" stroke-linejoin="round"/>
<path d="M204.175 186.103L196.108 183.797L199.124 195.608L204.175 186.103Z" fill="#263238" stroke="#263238" stroke-miterlimit="10" stroke-linecap="round" stroke-linejoin="round"/>
<path d="M215.635 152.703C216.043 154.409 215.847 155.917 215.198 156.073C214.548 156.229 213.69 154.972 213.282 153.266C212.874 151.56 213.07 150.051 213.719 149.896C214.369 149.741 215.227 150.997 215.635 152.703Z" fill="#263238"/>
<path d="M210.526 168.863C210.526 168.863 214.155 171.585 217.482 170.375" stroke="#263238" stroke-miterlimit="10" stroke-linecap="round" stroke-linejoin="round"/>
<path d="M211.132 129.848C211.132 129.848 215.366 137.409 212.342 142.248C209.318 147.087 202.059 149.204 198.127 153.741C194.195 158.278 192.078 166.141 190.566 166.746C189.054 167.351 184.517 158.278 181.795 158.883C179.073 159.488 174.536 165.839 178.468 172.493C182.4 179.147 189.356 178.239 189.356 178.239C189.356 178.239 178.468 183.985 176.351 183.985C174.234 183.985 167.883 180.356 164.858 177.029C161.833 173.702 150.946 163.721 150.341 155.555C149.736 147.389 160.624 137.106 160.624 137.106C160.624 137.106 147.619 136.199 150.946 131.359C154.273 126.52 166.068 123.495 166.068 123.495C166.068 123.495 163.951 115.934 166.975 114.422C169.999 112.91 188.448 118.959 188.448 118.959C188.448 118.959 183.306 112.305 190.565 112.003C197.824 111.701 210.224 120.774 211.132 129.848Z" fill="#263238" stroke="#263238" stroke-miterlimit="10" stroke-linecap="round" stroke-linejoin="round"/>
<path d="M187.062 162.688L225.648 147.088" stroke="#263238" stroke-miterlimit="10" stroke-linecap="round" stroke-linejoin="round"/>
<path d="M215.59 144.9C216.404 144.556 217.299 144.365 218.239 144.365C221.997 144.365 225.044 147.412 225.044 151.17C225.044 153.719 223.643 155.94 221.569 157.106" stroke="#263238" stroke-miterlimit="10" stroke-linecap="round" stroke-linejoin="round"/>
<path d="M201.454 216.044C201.454 216.044 201.152 207.273 198.732 204.854C196.312 202.434 178.468 192.454 170.302 190.337C162.136 188.22 153.668 191.244 148.224 193.059C142.78 194.874 139.151 200.015 137.033 211.206C134.916 222.396 134.614 229.353 139.15 229.957C143.687 230.562 150.038 216.952 164.253 214.23C178.468 211.508 191.473 213.928 194.497 215.44C197.522 216.952 201.454 216.044 201.454 216.044Z" fill="#6168E4" stroke="#263238" stroke-miterlimit="10" stroke-linecap="round" stroke-linejoin="round"/>
<path d="M155.514 206.762C152.787 207.72 150.944 208.483 150.944 208.483" stroke="#263238" stroke-miterlimit="10" stroke-linecap="round" stroke-linejoin="round"/>
<path d="M201.454 216.043C201.454 216.043 182.4 205.457 175.444 203.34C171.811 202.234 165.289 203.686 159.888 205.326" stroke="#263238" stroke-miterlimit="10" stroke-linecap="round" stroke-linejoin="round"/>
<path d="M291.263 265.202C291.263 265.202 290.275 271.488 289.108 272.206C287.941 272.924 288.03 266.369 288.03 266.369C288.03 266.369 286.593 270.141 285.695 271.038C284.797 271.936 285.336 267.177 285.336 267.177L286.324 262.688L291.263 265.202Z" fill="white" stroke="#263238" stroke-miterlimit="10" stroke-linecap="round" stroke-linejoin="round"/>
<path d="M278.457 258.977L287.735 259.13C287.735 259.13 290.186 259.48 290.536 260.88C290.886 262.28 292.286 265.431 292.286 265.431L277.932 261.23L278.457 258.977Z" fill="white" stroke="#263238" stroke-miterlimit="10" stroke-linecap="round" stroke-linejoin="round"/>
<path d="M281.783 261.932C281.783 261.932 294.736 260.182 295.087 261.232C295.351 262.025 296.354 269.14 296.565 271.438C296.599 271.802 296.137 271.984 295.911 271.696L292.286 265.433L282.484 266.133C282.484 266.133 279.683 263.682 281.783 261.932Z" fill="white" stroke="#263238" stroke-miterlimit="10" stroke-linecap="round" stroke-linejoin="round"/>
<path d="M174.306 222.721C174.306 222.721 166.254 228.672 169.055 243.376C171.856 258.08 191.461 298.34 193.211 301.841C194.961 305.342 202.663 305.692 206.164 304.642C209.665 303.592 271.981 278.735 271.981 278.735C271.981 278.735 278.633 276.984 279.683 275.584C280.733 274.184 287.385 266.832 287.385 266.832C287.385 266.832 297.888 268.232 300.338 267.532C302.789 266.832 297.887 266.132 295.437 265.432C293.548 264.892 283.134 260.818 278.457 258.977C277.078 258.434 275.513 258.769 274.478 259.83C271.197 263.193 264.209 270.319 262.879 271.383C261.128 272.783 211.766 281.186 211.766 281.186C211.766 281.186 200.213 226.922 195.662 222.371C191.111 217.82 183.059 218.87 183.059 218.87" fill="#6168E4"/>
<path d="M174.306 222.721C174.306 222.721 166.254 228.672 169.055 243.376C171.856 258.08 191.461 298.34 193.211 301.841C194.961 305.342 202.663 305.692 206.164 304.642C209.665 303.592 271.981 278.735 271.981 278.735C271.981 278.735 278.633 276.984 279.683 275.584C280.733 274.184 287.385 266.832 287.385 266.832C287.385 266.832 297.888 268.232 300.338 267.532C302.789 266.832 297.887 266.132 295.437 265.432C293.548 264.892 283.134 260.818 278.457 258.977C277.078 258.434 275.513 258.769 274.478 259.83C271.197 263.193 264.209 270.319 262.879 271.383C261.128 272.783 211.766 281.186 211.766 281.186C211.766 281.186 200.213 226.922 195.662 222.371C191.111 217.82 183.059 218.87 183.059 218.87" stroke="#263238" stroke-miterlimit="10" stroke-linecap="round" stroke-linejoin="round"/>
<path d="M239.42 291.677C255.77 285.201 271.98 278.735 271.98 278.735C271.98 278.735 278.632 276.985 279.682 275.584C280.732 274.184 287.384 266.832 287.384 266.832C287.384 266.832 297.887 268.232 300.337 267.532C302.788 266.832 297.886 266.132 295.436 265.432C293.547 264.892 283.133 260.817 278.456 258.977C277.077 258.434 275.512 258.769 274.477 259.83C271.196 263.193 264.208 270.319 262.878 271.383C261.968 272.111 248.178 274.734 235.153 277.083L239.42 291.677Z" fill="white" stroke="#263238" stroke-miterlimit="10" stroke-linecap="round" stroke-linejoin="round"/>
<path d="M129.999 360.584L114.752 461.925C114.555 462.951 116.046 463.325 116.357 462.329L139.332 362.251L129.999 360.584Z" fill="#9C9C9C" stroke="#263238" stroke-miterlimit="10" stroke-linecap="round" stroke-linejoin="round"/>
<path d="M152.757 361.246L159.393 461.733C159.471 462.775 161.008 462.746 161.048 461.703L162.201 360.414L152.757 361.246Z" fill="#9C9C9C" stroke="#263238" stroke-miterlimit="10" stroke-linecap="round" stroke-linejoin="round"/>
<path d="M175.124 362.766L193.326 461.5C193.55 462.52 195.067 462.276 194.96 461.237L184.357 360.615L175.124 362.766Z" fill="#9C9C9C" stroke="#263238" stroke-miterlimit="10" stroke-linecap="round" stroke-linejoin="round"/>
<path d="M210.307 361.927L225.199 461.334C225.381 462.362 226.907 462.18 226.843 461.138L219.621 360.154L210.307 361.927Z" fill="#9C9C9C" stroke="#263238" stroke-miterlimit="10" stroke-linecap="round" stroke-linejoin="round"/>
<path d="M196.077 341.696C196.077 341.696 178.573 335.861 170.405 314.857C162.236 293.852 148.817 257.677 139.481 253.01C130.146 248.342 112.058 257.094 110.891 290.935C109.724 324.776 112.46 349.958 120 358.251C126.667 365.584 138 374.918 177.333 375.584C212.457 376.179 226.803 362.79 231.666 358.251C236.666 353.584 244.504 344.03 238.086 344.03C231.668 344.03 204.245 344.03 196.077 341.696Z" fill="white" stroke="#263238" stroke-miterlimit="10" stroke-linecap="round" stroke-linejoin="round"/>
<path d="M276.934 133.954C276.934 133.954 270.102 125.983 260.613 124.465C251.124 122.947 250.483 136.81 262.628 142.883C267.81 145.474 273.517 144.581 273.517 144.581C273.517 144.581 263.834 156.031 270.101 157.865C284.154 161.978 281.108 140.406 281.108 140.406L276.934 133.954Z" fill="white" stroke="#263238" stroke-miterlimit="10" stroke-linecap="round" stroke-linejoin="round"/>
<path d="M279.229 133.453C279.229 133.453 275.243 123.741 278.212 114.602C281.181 105.463 293.104 111.667 292.981 125.246C292.929 131.039 290.246 135.25 290.246 135.25C290.246 135.25 305.508 132.003 303.629 138.257C299.358 152.476 283.073 140.108 283.073 140.108L279.229 133.453Z" fill="white" stroke="#263238" stroke-miterlimit="10" stroke-linecap="round" stroke-linejoin="round"/>
<path d="M284.526 145.58C284.185 145.58 283.853 145.406 283.666 145.091L274.178 129.15C273.896 128.676 274.051 128.062 274.526 127.779C275 127.497 275.614 127.652 275.897 128.127L285.385 144.068C285.667 144.542 285.512 145.156 285.037 145.439C284.877 145.535 284.7 145.58 284.526 145.58Z" fill="#263238"/>
<path d="M275.796 130.537C275.796 130.537 272.38 123.326 266.307 122.566" stroke="#263238" stroke-miterlimit="10" stroke-linecap="round" stroke-linejoin="round"/>
<path d="M275.896 128.127C275.896 128.127 273.898 122.186 275.416 118.391" stroke="#263238" stroke-miterlimit="10" stroke-linecap="round" stroke-linejoin="round"/>
<path d="M269.849 134.871C269.491 136.636 266.867 137.593 263.988 137.01C261.109 136.427 259.065 134.523 259.423 132.759C259.781 130.994 262.405 130.037 265.284 130.62C268.162 131.203 270.206 133.106 269.849 134.871Z" fill="#6168E4" stroke="#263238" stroke-miterlimit="10" stroke-linecap="round" stroke-linejoin="round"/>
<path d="M276.949 147.266C277.967 147.935 277.908 149.824 276.817 151.485C275.726 153.146 274.016 153.951 272.997 153.282C271.979 152.613 272.038 150.724 273.129 149.063C274.22 147.402 275.931 146.598 276.949 147.266Z" fill="#6168E4" stroke="#263238" stroke-miterlimit="10" stroke-linecap="round" stroke-linejoin="round"/>
<path d="M297.79 138.904C297.806 140.122 296.207 141.131 294.22 141.156C292.232 141.182 290.608 140.215 290.593 138.997C290.577 137.779 292.176 136.77 294.163 136.745C296.15 136.719 297.774 137.686 297.79 138.904Z" fill="#6168E4" stroke="#263238" stroke-miterlimit="10" stroke-linecap="round" stroke-linejoin="round"/>
<path d="M285.467 128.462C283.677 128.66 281.965 126.454 281.641 123.534C281.318 120.614 282.507 118.087 284.296 117.889C286.085 117.691 287.798 119.897 288.121 122.817C288.445 125.736 287.257 128.264 285.467 128.462Z" fill="#6168E4" stroke="#263238" stroke-miterlimit="10" stroke-linecap="round" stroke-linejoin="round"/>
<path d="M24.1553 462.93H489.944" stroke="#263238" stroke-miterlimit="10" stroke-linecap="round" stroke-linejoin="round"/>
</svg>
